<?xml version="1.0" encoding="UTF-8"?>
<svg xmlns="http://www.w3.org/2000/svg" xmlns:xlink="http://www.w3.org/1999/xlink" version="1.1" viewBox="0 0 1170 409">
  <defs>
    <style>
      .cls-1 {
        display: none;
        font-family: Rockwell-Regular, Rockwell;
        font-size: 24px;
      }

      .cls-2 {
        fill: none;
        stroke: #ffbf00;
        stroke-width: 60px;
      }
    </style>
    <path id="path" d="M26,436.5c53.8-61,198.4-178.8,346-162l260.5,50.5c75.8,13.3,206.5,25.5,274-144,40-66.3,110.5-156,297-142.5"/>
  </defs>
  <!-- Generator: Adobe Illustrator 28.6.0, SVG Export Plug-In . SVG Version: 1.2.0 Build 709)  -->
  <g>
    <g id="Layer_1">
      <path class="cls-2" d="M23,429.5c53.8-61,198.4-178.8,346-162l260.5,50.5c75.8,13.3,206.5,25.5,274-144,40-66.3,110.5-156,297-142.5"/>
      <text>
        <textPath startOffset="2.6%" xlink:href="#path"><tspan class="cls-1"><tspan x="0" y="0">CANGREJOS ALBINOS * JAMEOS DEL AGUA * CANGREJOS ALBINOS * JAMEOS DEL AGUA * CANGREJOS </tspan></tspan>
        </textPath></text>
      <g>
        <path d="M46,393.7l-1.3-1.4,1.6-1.5,3.9,4.1-1.7,1.6c-1.2-.4-2.4-.5-3.5-.3s-2.2.8-3.1,1.6c-.8.8-1.4,1.7-1.6,2.8-.2,1.1-.2,2.2.1,3.3.3,1.1.9,2.1,1.7,2.9.8.9,1.8,1.5,2.9,1.9,1.1.4,2.2.5,3.3.3,1.1-.2,2.1-.7,2.9-1.5,1-1,1.6-2.1,1.8-3.5.2-1.4,0-2.8-.8-4.3l2.5-.7c.9,1.8,1.2,3.7.8,5.5-.4,1.8-1.3,3.5-2.8,4.9-1.2,1.2-2.6,1.9-4.1,2.2-1.5.3-3,.2-4.5-.3-1.5-.5-2.8-1.3-3.9-2.5-1.2-1.3-2.1-2.7-2.5-4.2-.4-1.5-.4-3,0-4.5.4-1.5,1.3-2.8,2.5-4,.8-.8,1.7-1.4,2.7-1.8,1-.4,2-.6,3.1-.6Z"/>
        <path d="M57.9,383.2l12.4,6.8,1.5-1.3,1.5,1.6-5.2,4.6-1.5-1.6,1.7-1.5-3.7-2.1-4.8,4.3,1.6,3.9,1.7-1.5,1.5,1.6-5.2,4.7-1.5-1.6,1.6-1.4-5.3-13.1-1.6,1.4-1.4-1.6,6.9-6.1,1.4,1.6-1.6,1.4ZM56.1,384.8h0c0,0,2.9,7.1,2.9,7.1l3.8-3.3-6.6-3.8Z"/>
        <path d="M74.6,369.2l-1.9,1.6-1.4-1.7,5.6-4.6,1.4,1.7-2,1.7,10,12-2.1,1.8-16.2-6.2,8.1,9.8,1.9-1.6,1.4,1.7-5.6,4.6-1.4-1.7,1.9-1.6-8.5-10.2-1.9,1.6-1.4-1.7,4.6-3.8,14.7,5.6-7.4-8.9Z"/>
        <path d="M91.7,355.4l-1.2-1.5,1.8-1.4,3.6,4.6-1.8,1.4c-1.1-.6-2.3-.8-3.6-.7-1.3.1-2.4.6-3.4,1.3-1,.7-1.6,1.6-2,2.7s-.5,2.1-.3,3.2c.2,1.1.7,2.2,1.5,3.2.8,1.1,1.8,1.8,2.8,2.3,1.1.5,2.2.6,3.3.5,1.1-.1,2.2-.6,3.2-1.4.8-.6,1.4-1.3,1.8-2.1.4-.8.7-1.6.7-2.4,0-.8-.2-1.6-.6-2.4l-2.6,2-1.4-1.8,5.1-3.9.4.5c1,1.3,1.6,2.7,1.8,4.2s0,2.9-.7,4.2c-.7,1.4-1.7,2.5-3,3.6-1.5,1.2-3.1,1.9-4.7,2.2-1.6.3-3.1.1-4.6-.5s-2.7-1.7-3.9-3.1c-1.1-1.4-1.7-2.8-2-4.4-.2-1.6,0-3.1.5-4.5s1.6-2.7,2.9-3.7c1.9-1.5,4-2.2,6.3-2Z"/>
        <path d="M108.3,346.4c.7.9,1,1.9.9,2.9s-.5,2-1.2,2.9l6.3,3.3,1.7-1.3,1.3,1.8-3.2,2.3-8-4.4-2,1.5,3.5,4.9,1.8-1.3,1.3,1.8-5.9,4.3-1.3-1.8,1.9-1.4-7.8-10.7-1.9,1.4-1.3-1.8,5.9-4.3c1.8-1.3,3.4-2,4.6-2,1.3,0,2.3.7,3.3,2ZM106.1,348c-.5-.7-1-1-1.7-1s-1.4.3-2.3,1l-2.2,1.6,3,4.1,2.1-1.5c.9-.7,1.5-1.3,1.7-2s0-1.4-.5-2.1Z"/>
        <path d="M121,338.3l-1.7-2.4-6.2,4.3,3,4.3,5.4-3.7,1.2,1.8-5.4,3.7,3.3,4.8,6.2-4.3-1.8-2.7,1.8-1.2,3.1,4.5-12.1,8.3-1.2-1.8,1.9-1.3-7.5-10.9-1.9,1.3-1.2-1.8,12.1-8.3,2.9,4.2-1.8,1.2Z"/>
        <path d="M126.7,331l8.6,13c1.1,1.6,1.6,3,1.4,4.1s-.9,2-2.2,2.9c-.6.4-1.2.7-1.9.9l-1.4-2.1c.7-.2,1.2-.5,1.7-.8.5-.3.7-.6.9-.9s.1-.6,0-1c-.1-.4-.4-.9-.8-1.4l-8.7-13.2-1.9,1.2-1.2-1.8,6-3.9,1.2,1.8-1.9,1.2Z"/>
        <path d="M149.1,324.6c.9,1.5,1.5,3.1,1.5,4.7,0,1.6-.3,3.1-1.1,4.5s-1.9,2.5-3.4,3.5c-1.5.9-3,1.4-4.6,1.5-1.6,0-3.1-.3-4.5-1.1s-2.5-1.9-3.5-3.4c-.9-1.5-1.4-3-1.5-4.6s.3-3,1-4.4,1.9-2.5,3.3-3.4c1.5-1,3.1-1.5,4.7-1.5,1.6,0,3.1.3,4.5,1s2.5,1.9,3.4,3.3ZM144.9,335.2c1-.6,1.8-1.5,2.3-2.5s.7-2.1.5-3.3c-.1-1.2-.5-2.2-1.1-3.3-.6-1-1.5-1.8-2.5-2.4s-2.1-.9-3.2-.9c-1.1,0-2.2.3-3.3,1-1,.6-1.8,1.4-2.2,2.4-.5,1-.7,2-.5,3.2.1,1.1.5,2.2,1.2,3.3.7,1.1,1.5,2,2.5,2.6,1,.6,2,.9,3.1.9,1.1,0,2.2-.3,3.3-1Z"/>
        <path d="M155,312.3l-.6-1,1.9-1.1,2.7,4.6-1.9,1.1-.6-1.1c-1.5-.7-2.9-.7-4.3,0-.8.5-1.4,1-1.6,1.6s-.2,1.2.2,1.8c.4.6.8.9,1.4,1s1.4,0,2.4-.3l2.1-.6c1.3-.4,2.4-.5,3.3-.3.9.1,1.6.4,2.1.9s1,1,1.4,1.7c.8,1.4,1,2.7.6,4-.4,1.3-1.3,2.4-2.8,3.2-1.4.8-2.9,1-4.7.7l.7,1.3-1.9,1.1-3.2-5.6,1.9-1.1.8,1.3c1.9,1.1,3.6,1.3,5,.4.9-.5,1.4-1.1,1.6-1.8.2-.7,0-1.5-.4-2.3-.6-1.1-1.8-1.4-3.6-.9l-2.2.6c-1.6.4-2.9.5-4,.2s-1.9-1-2.5-2.1c-.8-1.3-1-2.6-.6-3.8s1.2-2.2,2.6-3c1.2-.7,2.6-1,4.1-.8Z"/>
        <path d="M175.8,302.2l10.4,9.6,1.7-.9,1,2-6.2,3.2-1-2,2-1.1-3.1-2.9-5.7,3,.6,4.2,2-1,1,2-6.2,3.2-1-2,1.9-1-1.9-14-1.9,1-1-1.9,8.1-4.2,1,1.9-1.9,1ZM173.7,303.3h0s1.1,7.6,1.1,7.6l4.4-2.3-5.5-5.3Z"/>
        <path d="M187.4,296.5l5.7,12,5.2-2.5-2.4-4.9,2-.9,3.3,6.9-11.7,5.6-1-2,2.1-1-5.7-12-2.1,1-1-2,6.5-3.1,1,2-2.1,1Z"/>
        <path d="M208.5,289.4c.3.8.5,1.5.4,2.2,0,.7-.4,1.4-.9,2,1,0,2,.1,2.7.6s1.4,1.2,1.8,2.1c.7,1.5.6,3-.1,4.3-.8,1.3-2.3,2.4-4.5,3.4l-5.6,2.5-.9-2,2-.9-5.3-12.1-2,.9-.9-2,5.7-2.5c2-.9,3.6-1.2,4.8-.9s2.2,1.1,2.8,2.5ZM206.1,290.6c-.3-.8-.9-1.2-1.6-1.4s-1.5,0-2.5.4l-1.6.7,2.1,4.7,1.6-.7c2-.9,2.7-2.2,2-3.8ZM210,297.4c-.4-.9-1-1.4-1.8-1.6-.8-.2-1.9,0-3.2.6l-1.6.7,2.4,5.4,1-.4c1-.4,1.7-.8,2.3-1.2s1-.9,1.2-1.4c.2-.6.1-1.3-.2-2.1Z"/>
        <path d="M214.4,284.5l5,12.3,1.8-.7.8,2-6,2.5-.8-2,1.8-.7-5-12.3-1.8.7-.8-2,6-2.5.8,2-1.8.7Z"/>
        <path d="M230.6,278.3l-2.4.9-.8-2.1,6.8-2.5.8,2.1-2.4.9,5.4,14.7-2.6,1-13.2-11.2,4.4,11.9,2.4-.9.8,2.1-6.8,2.5-.8-2.1,2.4-.9-4.6-12.4-2.4.9-.8-2.1,5.6-2.1,12,10.2-4-10.8Z"/>
        <path d="M256.6,276.7c.5,1.7.6,3.4.3,4.9-.3,1.6-1.1,2.9-2.2,4.1-1.1,1.1-2.5,2-4.2,2.5-1.7.5-3.3.6-4.8.3-1.5-.3-2.9-1.1-4-2.2-1.1-1.1-2-2.5-2.5-4.2-.5-1.7-.6-3.3-.3-4.8.3-1.5,1-2.9,2.1-4s2.4-2,4.1-2.5c1.7-.5,3.4-.6,5-.3s2.9,1,4.1,2.1c1.1,1.1,2,2.4,2.5,4.1ZM249.9,285.9c1.2-.4,2.1-1,2.8-1.9.7-.9,1.2-1.9,1.4-3.1.2-1.2,0-2.3-.3-3.4-.4-1.2-1-2.1-1.8-3-.8-.8-1.8-1.4-2.9-1.7s-2.2-.2-3.4.1c-1.1.4-2.1,1-2.8,1.8s-1.1,1.8-1.3,2.9c-.2,1.1,0,2.3.3,3.5.4,1.3,1,2.3,1.8,3.2.8.8,1.7,1.4,2.8,1.7,1.1.3,2.2.2,3.4-.2Z"/>
        <path d="M265.7,266.4l-.3-1.2,2.1-.5,1.4,5.2-2.1.5-.3-1.2c-1.2-1.1-2.6-1.4-4.2-1-.9.2-1.6.6-2,1.1-.4.5-.5,1.1-.3,1.8.2.7.6,1.1,1.1,1.4.6.2,1.4.3,2.4.3h2.1c1.4,0,2.5.2,3.3.6s1.4.9,1.8,1.4c.4.6.7,1.2.9,2,.4,1.5.2,2.9-.5,4.1-.7,1.2-1.9,2-3.5,2.4-1.5.4-3.1.2-4.7-.6l.4,1.4-2.1.6-1.6-6.2,2.1-.6.4,1.5c1.5,1.6,3.1,2.2,4.7,1.8,1-.3,1.6-.7,2-1.3.4-.6.5-1.4.2-2.3-.3-1.2-1.4-1.8-3.3-1.9h-2.3c-1.6,0-2.9-.4-3.9-.9-.9-.6-1.6-1.4-1.9-2.7-.4-1.5-.3-2.8.4-3.8.7-1.1,1.8-1.8,3.4-2.2,1.4-.4,2.7-.2,4.2.3Z"/>
        <path d="M284.2,266.2c1-.6,1.8-1.3,2.4-2.2l2-1.1,1.1,2.1-1.9,1.1c-.3,0-.6,0-.8,0-.9.2-1.6.4-2.2.7,1,.8,1.9,1.3,2.7,1.5l1.6,1.5-1.6,1.7-1.6-1.5c-.4-1.1-.9-1.9-1.7-2.6-.5,1.1-.7,2.1-.6,3.1l-1,2-2.1-.9.9-2c.7-.5,1.4-1.3,1.9-2.4-.6,0-1.4,0-2.4.2,0,0-.3,0-.7.2l-2.2-.3.2-2.3,2.2.3c.8.6,1.8,1,3,1.1-.2-1-.7-1.9-1.4-2.9l-.4-2.1,2.3-.5.4,2.1c-.3,1.1-.4,2.2-.2,3.2Z"/>
        <path d="M302.5,260.3l2.2,15.5c.3,1.9.1,3.4-.4,4.3-.6.9-1.6,1.5-3.2,1.7-.7.1-1.4.1-2.1,0l-.4-2.5c.7,0,1.3,0,1.9,0,.5,0,.9-.2,1.2-.4.2-.2.4-.5.4-.9,0-.4,0-.9,0-1.6l-2.2-15.6-2.2.3-.3-2.2,7.1-1,.3,2.2-2.2.3Z"/>
        <path d="M317.8,258.5l6,12.8,2-.2.2,2.2-6.9.7-.2-2.2,2.3-.2-1.7-3.9-6.4.6-1,4.1,2.2-.2.2,2.2-7,.7-.2-2.2,2.1-.2,3.5-13.7-2.1.2-.2-2.1,9.1-.9.2,2.1-2.1.2ZM315.4,258.7h0s-1.8,7.5-1.8,7.5l5-.5-3.1-7Z"/>
        <path d="M341.8,255.2h6.1c0-.1,0,2.1,0,2.1h-2.1s.3,13.3.3,13.3h2.1s0,2.2,0,2.2h-6.6c0,.1,0-2.1,0-2.1h2.1s-.3-13.3-.3-13.3l-5.7,15.8h-.5s-6.3-15.5-6.3-15.5l.3,13.3h1.9s0,2.2,0,2.2h-6.3c0,.1,0-2.1,0-2.1h2.1s-.3-13.3-.3-13.3h-2.1s0-2.2,0-2.2h6.1c0-.1,4.9,11.9,4.9,11.9l4.4-12.2Z"/>
        <path d="M362.3,261l.2-2.9-7.5-.4-.3,5.3,6.6.3v2.2c-.1,0-6.7-.3-6.7-.3l-.3,5.8,7.5.4.2-3.2h2.2c0,.1-.3,5.5-.3,5.5l-14.7-.8v-2.2c.1,0,2.4.1,2.4.1l.7-13.2h-2.3c0-.1.1-2.3.1-2.3l14.7.8-.3,5.1h-2.2Z"/>
        <path d="M385,268c-.3,1.8-1,3.3-2.1,4.5-1,1.2-2.3,2.1-3.8,2.6s-3.2.6-4.9.2c-1.7-.3-3.2-1-4.4-2.1-1.2-1-2-2.3-2.5-3.8s-.6-3.1-.2-4.9c.3-1.7,1-3.2,2-4.4s2.3-2,3.8-2.5c1.5-.5,3.1-.6,4.8-.2,1.8.3,3.3,1,4.5,2.1,1.2,1,2.1,2.3,2.6,3.8.5,1.5.6,3.1.3,4.8ZM374.7,272.9c1.2.2,2.3.1,3.4-.3s1.9-1.1,2.6-2.1c.7-.9,1.2-2,1.4-3.1.2-1.2.2-2.3-.2-3.5-.3-1.1-.9-2.1-1.8-2.8-.8-.8-1.9-1.3-3.1-1.5-1.2-.2-2.3-.1-3.3.3s-1.9,1-2.6,2c-.7.9-1.2,2-1.4,3.2-.3,1.3-.2,2.5,0,3.6.3,1.1.9,2,1.7,2.8.8.7,1.8,1.2,3.1,1.5Z"/>
        <path d="M397.4,262.6l.2-1.2,2.1.4-1,5.3-2.1-.4.2-1.2c-.6-1.5-1.7-2.4-3.3-2.7-1-.2-1.7-.1-2.3.2s-.9.8-1.1,1.5c-.1.7,0,1.3.4,1.7.4.5,1.1.9,2,1.3l1.9.9c1.2.6,2.1,1.2,2.7,1.9s.9,1.4,1,2.1c0,.7,0,1.4,0,2.2-.3,1.6-1,2.7-2.2,3.5-1.2.7-2.6.9-4.2.6-1.6-.3-2.9-1.2-4-2.6l-.3,1.4-2.2-.4,1.2-6.3,2.2.4-.3,1.5c.7,2.1,1.8,3.3,3.5,3.6,1,.2,1.8,0,2.4-.3.6-.4,1-1.1,1.2-2,.2-1.2-.5-2.3-2.1-3.1l-2-1c-1.5-.7-2.5-1.6-3.1-2.5-.6-.9-.8-2-.5-3.2.3-1.5,1-2.6,2-3.3s2.4-.8,4-.5c1.4.3,2.6,1,3.6,2.1Z"/>
        <path d="M423.6,275.2c-.6,3-1.9,5-4,6.2-2.1,1.1-4.9,1.4-8.4.7l-6.5-1.3.4-2.2,2.3.5,2.5-13-2.3-.5.4-2.2,6.6,1.3c3.6.7,6.1,1.9,7.6,3.6,1.5,1.7,1.9,4,1.4,6.9ZM420.7,274.8c.3-1.5.3-2.7,0-3.8-.3-1-1-1.9-2.1-2.6s-2.5-1.2-4.3-1.5l-1.7-.3-2.5,13,1.6.3c2.7.5,4.7.4,6.2-.5,1.4-.8,2.4-2.4,2.8-4.7Z"/>
        <path d="M438.1,274.6l.6-2.9-7.4-1.4-1,5.2,6.5,1.3-.4,2.2-6.5-1.3-1.1,5.7,7.4,1.4.6-3.2,2.1.4-1,5.3-14.4-2.8.4-2.2,2.2.4,2.5-13-2.2-.4.4-2.2,14.4,2.8-1,5.1-2.1-.4Z"/>
        <path d="M446.9,273.3l-2.5,13,5.7,1.1,1-5.4,2.2.4-1.5,7.5-12.7-2.5.4-2.2,2.2.4,2.5-13-2.2-.4.4-2.2,7.1,1.4-.4,2.2-2.2-.4Z"/>
        <path d="M473.9,278.4l2.2,14,1.9.4-.4,2.2-6.8-1.3.4-2.2,2.3.4-.6-4.2-6.3-1.2-2.1,3.7,2.2.4-.4,2.2-6.9-1.3.4-2.2,2.1.4,7.2-12.2-2.1-.4.4-2.1,9,1.7-.4,2.1-2.1-.4ZM471.5,278h0s-3.8,6.6-3.8,6.6l4.9,1-1-7.6Z"/>
        <path d="M495.8,282.5l.4-1.9,2.2.4-1.1,5.7-2.2-.4c-.3-1.2-.9-2.3-1.9-3.1-1-.9-2-1.4-3.3-1.7-1.2-.2-2.3-.2-3.4.2-1,.4-1.9,1-2.6,1.9-.7.9-1.2,2-1.4,3.2-.3,1.3-.2,2.5.1,3.7.3,1.1,1,2.1,1.8,2.8.9.8,1.9,1.3,3.2,1.5.9.2,1.9.2,2.7,0,.9-.2,1.6-.5,2.3-1.1.7-.5,1.1-1.2,1.4-2l-3.2-.6.4-2.2,6.3,1.2v.6c-.4,1.6-1.1,3-2.1,4.1-1,1.1-2.2,1.8-3.7,2.2-1.4.4-3,.4-4.6.1-1.9-.4-3.5-1.1-4.7-2.1-1.3-1-2.1-2.3-2.6-3.8s-.6-3.2-.2-4.9c.3-1.7,1-3.2,2-4.4s2.3-2.1,3.7-2.6c1.5-.5,3-.6,4.7-.3,2.4.5,4.3,1.6,5.7,3.4Z"/>
        <path d="M505.3,284.6l-1.7,8.8c-.3,1.6-.2,2.8.2,3.6.5.8,1.3,1.4,2.4,1.6,1.2.2,2.1,0,2.9-.6.7-.6,1.3-1.7,1.6-3.2l1.7-8.9-2-.4.4-2.2,6.8,1.3-.4,2.2-2.2-.4-1.8,9.1c-.4,2.1-1.2,3.5-2.5,4.4-1.3.9-2.9,1.1-4.9.7-2-.4-3.5-1.2-4.3-2.5-.8-1.3-1-3-.6-5.2l1.7-9-2.1-.4.4-2.2,6.8,1.3-.4,2.2-2-.4Z"/>
        <path d="M528.7,289.1l2.2,14,1.9.4-.4,2.2-6.8-1.3.4-2.2,2.3.4-.6-4.2-6.3-1.2-2.1,3.7,2.2.4-.4,2.2-6.9-1.3.4-2.2,2.1.4,7.2-12.2-2.1-.4.4-2.1,9,1.7-.4,2.1-2.1-.4ZM526.4,288.6h0s-3.8,6.6-3.8,6.6l4.9,1-1-7.6Z"/>
        <path d="M548.6,295.8c1.2-.2,2.2-.5,3-1.2l2.2-.3.3,2.3-2.2.3c-.3-.1-.5-.2-.8-.2-.9-.2-1.6-.2-2.3-.2.6,1.1,1.2,1.9,2,2.4l.9,2-2.1,1-.9-2c0-1.1-.1-2.1-.6-3.1-.8.8-1.4,1.7-1.7,2.7l-1.7,1.5-1.6-1.7,1.6-1.5c.9-.2,1.8-.7,2.7-1.5-.6-.3-1.3-.5-2.3-.7,0,0-.3,0-.7,0l-1.9-1.1,1.1-2.1,1.9,1.1c.5.8,1.3,1.6,2.4,2.2.2-1,.1-2-.2-3.2l.4-2.1,2.3.4-.4,2.1c-.7.9-1.2,1.9-1.4,2.9Z"/>
        <path d="M577.4,298.3l.4-1.9,2.2.4-1.1,5.6-2.3-.4c-.4-1.2-1-2.2-1.8-3.1-.9-.8-1.9-1.3-3.1-1.6-1.1-.2-2.2-.1-3.2.3-1,.4-1.9,1.1-2.6,2s-1.2,1.9-1.4,3.1c-.2,1.2-.2,2.4.1,3.5s.9,2.1,1.7,2.8c.8.8,1.8,1.3,2.9,1.5,1.4.3,2.7,0,3.9-.6s2.2-1.7,3-3.2l2,1.6c-1,1.8-2.3,3.1-4,3.9s-3.6,1-5.6.6c-1.7-.3-3.1-1-4.2-2.1-1.1-1.1-2-2.3-2.4-3.8s-.5-3.1-.2-4.7c.3-1.8,1-3.2,2-4.5s2.2-2.1,3.7-2.6c1.5-.5,3-.6,4.7-.3,1.1.2,2.1.6,3,1.2.9.6,1.7,1.3,2.3,2.1Z"/>
        <path d="M592.5,301.4l2.2,14,1.9.4-.4,2.2-6.8-1.3.4-2.2,2.3.4-.6-4.2-6.3-1.2-2.1,3.7,2.2.4-.4,2.2-6.9-1.3.4-2.2,2.1.4,7.2-12.2-2.1-.4.4-2.1,9,1.7-.4,2.1-2.1-.4ZM590.2,301h0s-3.8,6.6-3.8,6.6l4.9,1-1-7.6Z"/>
        <path d="M613.6,305.6l-2.5-.5.4-2.2,7.1,1.4-.4,2.2-2.5-.5-3,15.4-2.7-.5-5.4-16.4-2.4,12.5,2.5.5-.4,2.2-7.1-1.4.4-2.2,2.5.5,2.5-13-2.5-.5.4-2.2,5.9,1.1,5,14.9,2.2-11.3Z"/>
        <path d="M634.8,309.4l.4-1.9,2.2.4-1.1,5.7-2.2-.4c-.3-1.2-.9-2.3-1.9-3.1s-2-1.4-3.3-1.7c-1.2-.2-2.3-.2-3.4.2-1,.4-1.9,1-2.6,1.9-.7.9-1.2,2-1.4,3.2-.3,1.3-.2,2.5.1,3.7.3,1.1,1,2.1,1.8,2.8.9.8,1.9,1.3,3.2,1.5.9.2,1.9.2,2.7,0,.9-.2,1.6-.5,2.3-1.1.7-.5,1.1-1.2,1.4-2l-3.2-.6.4-2.2,6.3,1.2v.6c-.4,1.6-1.1,3-2.1,4.1-1,1.1-2.2,1.8-3.7,2.2s-3,.4-4.6.1c-1.9-.4-3.5-1.1-4.7-2.1-1.3-1-2.1-2.3-2.6-3.8s-.6-3.2-.2-4.9c.3-1.7,1-3.2,2-4.4,1-1.2,2.3-2.1,3.7-2.6,1.5-.5,3-.6,4.7-.3,2.4.5,4.3,1.6,5.7,3.4Z"/>
        <path d="M652.2,315c-.2,1.1-.6,2-1.4,2.7s-1.7,1-2.9,1.2l2.1,6.8,2.1.3-.3,2.2-3.9-.6-2.6-8.7-2.4-.4-.9,5.9,2.2.4-.3,2.2-7.2-1.1.3-2.2,2.4.4,2.1-13.1-2.4-.4.3-2.2,7.2,1.1c2.2.4,3.8,1,4.7,1.9.9.9,1.2,2.1.9,3.7ZM649.5,314.6c.1-.8,0-1.4-.5-1.9-.4-.5-1.2-.8-2.3-.9l-2.7-.4-.8,5,2.5.4c1.1.2,2,.1,2.6-.2.6-.3,1-.9,1.1-1.9Z"/>
        <path d="M666.2,317.4l.4-2.9-7.5-.9-.7,5.2,6.5.8-.3,2.2-6.5-.8-.7,5.7,7.5.9.4-3.2,2.2.3-.7,5.4-14.6-1.8.3-2.2,2.3.3,1.6-13.2-2.3-.3.3-2.2,14.6,1.8-.6,5.1-2.2-.3Z"/>
        <path d="M674.9,315.3l-1.5,15.6c-.2,2-.7,3.3-1.4,4.1-.8.7-1.9,1-3.5.9-.7,0-1.4-.2-2-.5l.2-2.5c.7.2,1.3.4,1.8.4.5,0,1,0,1.2-.1.3-.2.5-.4.6-.8.1-.4.2-.9.3-1.6l1.5-15.7-2.3-.2.2-2.2,7.2.7-.2,2.2-2.3-.2Z"/>
        <path d="M696.4,323.2c0,1.8-.6,3.4-1.4,4.7-.9,1.4-2,2.4-3.4,3.1-1.4.7-3,1-4.8.9-1.8,0-3.3-.6-4.6-1.4s-2.3-2-3-3.5c-.7-1.4-1-3-.9-4.8,0-1.7.6-3.3,1.4-4.6.8-1.3,2-2.3,3.4-3,1.4-.7,3-1,4.7-.9,1.8,0,3.4.6,4.8,1.4,1.4.9,2.4,2,3.1,3.4s1,3,.9,4.7ZM686.9,329.5c1.2,0,2.3-.2,3.3-.8,1-.6,1.8-1.4,2.3-2.4.6-1,.9-2.1.9-3.3,0-1.2-.2-2.3-.7-3.4-.5-1.1-1.2-1.9-2.2-2.6-.9-.6-2-1-3.2-1.1-1.2,0-2.3.2-3.2.7s-1.7,1.3-2.3,2.3c-.6,1-.9,2.1-.9,3.4,0,1.3.1,2.5.6,3.6.5,1.1,1.1,1.9,2,2.5.9.6,2,1,3.2,1Z"/>
        <path d="M707.6,315.4v-1.2s2.1,0,2.1,0v5.4s-2.1,0-2.1,0v-1.2c-.9-1.4-2.2-2-3.8-2-1,0-1.7.2-2.2.6-.5.4-.8,1-.8,1.7,0,.7.3,1.2.7,1.6.5.4,1.2.7,2.3.9l2.1.5c1.3.3,2.3.8,3.1,1.4.7.6,1.2,1.2,1.4,1.8.2.6.3,1.4.3,2.2,0,1.6-.5,2.9-1.5,3.8-1,.9-2.3,1.4-4,1.4-1.6,0-3.1-.6-4.4-1.7v1.5s-2.2,0-2.2,0v-6.4c0,0,2.1,0,2.1,0v1.6c1.1,1.9,2.5,2.9,4.2,2.9,1,0,1.8-.3,2.3-.8.5-.5.8-1.2.8-2.2,0-1.3-.9-2.1-2.7-2.6l-2.2-.6c-1.6-.4-2.8-1-3.5-1.8-.8-.8-1.2-1.8-1.2-3,0-1.6.4-2.8,1.3-3.6.9-.9,2.2-1.3,3.8-1.3,1.4,0,2.7.4,3.9,1.4Z"/>
        <path d="M729.7,315l6.1,12.8,2-.2.2,2.2-6.9.7-.2-2.2,2.3-.2-1.8-3.8-6.4.7-1,4.1,2.2-.2.2,2.2-7,.7-.2-2.2,2.1-.2,3.4-13.7-2.1.2-.2-2.1,9.1-.9.2,2.1-2.1.2ZM727.3,315.2h0s-1.7,7.5-1.7,7.5l5-.5-3.2-7Z"/>
        <path d="M741.7,313.3l2.4,13,5.7-1-1-5.4,2.2-.4,1.4,7.6-12.7,2.3-.4-2.2,2.2-.4-2.4-13-2.2.4-.4-2.2,7.1-1.3.4,2.2-2.2.4Z"/>
        <path d="M763.2,310.9c.2.8.2,1.6,0,2.3-.2.7-.6,1.3-1.2,1.8,1,0,1.9.4,2.6,1,.7.6,1.2,1.4,1.4,2.4.4,1.6.1,3-.8,4.2s-2.6,2-5,2.7l-5.9,1.5-.6-2.1,2.1-.5-3.3-12.8-2.1.5-.6-2.1,6-1.6c2.1-.5,3.7-.6,4.9-.1,1.2.5,2,1.4,2.4,2.9ZM760.7,311.7c-.2-.8-.6-1.3-1.3-1.6s-1.5-.3-2.6,0l-1.7.4,1.3,5,1.7-.4c2.2-.6,3-1.7,2.6-3.4ZM763.4,319c-.2-.9-.8-1.6-1.6-1.9-.8-.3-1.9-.3-3.3.1l-1.6.4,1.5,5.7,1-.3c1-.3,1.8-.5,2.5-.8.6-.3,1.1-.7,1.4-1.2s.3-1.2.1-2.1Z"/>
        <path d="M769.1,306.5l4.1,12.6,1.8-.6.7,2.1-6.2,2-.7-2.1,1.8-.6-4.1-12.6-1.8.6-.7-2.1,6.2-2,.7,2.1-1.8.6Z"/>
        <path d="M784.6,300.5l-2.3,1-.8-2,6.7-2.8.8,2-2.4,1,6,14.5-2.5,1-13.6-10.7,4.9,11.7,2.3-1,.8,2-6.7,2.8-.8-2,2.3-1-5.1-12.2-2.3,1-.8-2,5.6-2.3,12.4,9.7-4.4-10.6Z"/>
        <path d="M809.2,295c.9,1.6,1.3,3.2,1.3,4.8,0,1.6-.4,3.1-1.3,4.4-.9,1.3-2.1,2.5-3.6,3.3-1.5.9-3.1,1.3-4.7,1.2s-3-.5-4.4-1.3c-1.3-.9-2.5-2-3.3-3.6-.8-1.5-1.3-3.1-1.3-4.6,0-1.6.4-3,1.2-4.4s2-2.4,3.5-3.3c1.6-.9,3.2-1.3,4.8-1.3,1.6,0,3.1.4,4.4,1.3s2.4,2,3.3,3.5ZM804.5,305.4c1.1-.6,1.8-1.4,2.4-2.4s.8-2.1.7-3.3c0-1.2-.4-2.3-1-3.3-.6-1.1-1.4-1.9-2.4-2.5-1-.6-2-1-3.2-1-1.1,0-2.2.2-3.3.8-1,.6-1.8,1.4-2.3,2.3s-.8,2-.7,3.1c0,1.1.4,2.3,1,3.3.6,1.2,1.4,2.1,2.4,2.7.9.7,2,1,3.1,1.1,1.1,0,2.2-.2,3.3-.8Z"/>
        <path d="M814.1,282.2l-.7-1,1.8-1.2,3.1,4.4-1.8,1.2-.7-1c-1.5-.6-3-.5-4.3.5-.8.6-1.3,1.1-1.5,1.8-.2.6,0,1.2.3,1.8.4.6.9.9,1.5.9s1.4-.1,2.4-.5l2-.7c1.3-.5,2.4-.7,3.3-.6.9,0,1.6.3,2.2.7s1,.9,1.5,1.6c.9,1.3,1.2,2.6.9,4-.3,1.3-1.1,2.5-2.5,3.5-1.3.9-2.8,1.3-4.6,1.1l.8,1.2-1.8,1.3-3.7-5.3,1.8-1.3.9,1.3c2,1,3.7,1,5,0,.8-.6,1.3-1.2,1.5-1.9s0-1.5-.6-2.2c-.7-1-2-1.3-3.7-.6l-2.2.8c-1.6.5-2.9.7-3.9.5s-2-.8-2.7-1.9c-.9-1.3-1.2-2.5-.9-3.8.3-1.2,1.1-2.3,2.4-3.2,1.2-.8,2.5-1.2,4-1.1Z"/>
        <path d="M829.7,274.6c.6-1,.9-2.1.9-3.1l1.1-1.9,2,1.2-1.1,1.9c-.2.2-.5.3-.7.5-.7.6-1.2,1.1-1.5,1.7,1.3.2,2.3.2,3.1,0l2.2.5-.5,2.3-2.2-.5c-.8-.7-1.8-1.2-2.8-1.4.1,1.2.5,2.2,1.1,3l.2,2.2-2.3.2-.2-2.2c.4-.8.5-1.8.5-3.1-.6.3-1.3.7-2,1.4,0,0-.2.2-.5.5l-2,.8-1-2.1,2-.9c1,.1,2.1,0,3.2-.5-.7-.7-1.5-1.4-2.7-1.8l-1.4-1.6,1.7-1.5,1.4,1.6c.3,1.1.8,2.1,1.4,2.9Z"/>
        <path d="M840.8,259.9l11.3,10.8c1.4,1.4,2.2,2.6,2.3,3.6.1,1.1-.4,2.2-1.4,3.3-.5.5-1,1-1.6,1.3l-1.8-1.7c.6-.4,1.1-.8,1.5-1.2.4-.4.6-.8.7-1.1,0-.3,0-.6-.2-1s-.6-.8-1.1-1.2l-11.4-10.8-1.6,1.6-1.6-1.5,4.9-5.2,1.6,1.5-1.6,1.6Z"/>
        <path d="M850.3,248.9l13.3,4.8,1.3-1.5,1.7,1.4-4.4,5.4-1.7-1.4,1.5-1.8-4-1.5-4.1,4.9,2.2,3.6,1.4-1.7,1.7,1.4-4.5,5.4-1.7-1.4,1.4-1.6-7.2-12.2-1.4,1.6-1.6-1.4,5.9-7.1,1.6,1.4-1.4,1.6ZM848.8,250.8h0c0,0,4,6.6,4,6.6l3.2-3.9-7.1-2.8Z"/>
        <path d="M862.1,229.3l3.5-5,1.8,1.2-1.2,1.8,10.9,7.5,1.2-1.8,1.8,1.2-3.8,5.5-1.8-1.2,1.2-1.7-10.9-7.5,9.5,13.9-.3.4-16.3-3.9,10.9,7.5,1.1-1.6,1.8,1.2-3.5,5.2-1.8-1.2,1.2-1.8-10.9-7.5-1.2,1.8-1.8-1.2,3.4-5,12.6,3-7.3-10.7Z"/>
        <path d="M876.5,215.5l-2.6-1.5-3.8,6.5,4.5,2.6,3.3-5.7,1.9,1.1-3.3,5.7,5,2.9,3.8-6.5-2.8-1.6,1.1-1.9,4.7,2.7-7.4,12.7-1.9-1.1,1.1-2-11.5-6.7-1.1,2-1.9-1.1,7.4-12.7,4.5,2.6-1.1,1.9Z"/>
        <path d="M890,197.2c1.6.8,2.9,1.9,3.8,3.2.9,1.3,1.4,2.8,1.4,4.4,0,1.6-.3,3.2-1.1,4.8-.8,1.6-1.8,2.8-3.2,3.7-1.3.9-2.8,1.3-4.4,1.4-1.6,0-3.2-.3-4.7-1.1-1.6-.8-2.8-1.8-3.6-3.1-.9-1.3-1.3-2.7-1.4-4.3,0-1.6.3-3.1,1.1-4.7.8-1.6,1.9-2.9,3.2-3.8s2.8-1.4,4.4-1.4c1.6,0,3.1.3,4.7,1ZM892,208.4c.5-1.1.7-2.2.6-3.3s-.6-2.2-1.3-3.1c-.7-.9-1.6-1.7-2.6-2.2-1.1-.5-2.2-.8-3.4-.8-1.2,0-2.2.3-3.2.9-1,.6-1.7,1.4-2.3,2.5-.5,1.1-.8,2.1-.6,3.2.1,1.1.5,2.1,1.2,3s1.6,1.6,2.7,2.2c1.2.6,2.4.9,3.5.9,1.2,0,2.2-.3,3.1-.9.9-.6,1.7-1.4,2.3-2.6Z"/>
        <path d="M887.4,183.8l-1.1-.5.9-2,4.9,2.2-.9,2-1.1-.5c-1.6.3-2.8,1.2-3.4,2.6-.4.9-.5,1.6-.4,2.3.2.6.6,1.1,1.2,1.4.6.3,1.2.3,1.8,0,.5-.3,1.1-.9,1.8-1.7l1.3-1.7c.9-1.1,1.7-1.8,2.5-2.2.8-.4,1.6-.6,2.2-.5.7,0,1.4.3,2.1.6,1.5.6,2.4,1.6,2.9,2.9s.3,2.7-.3,4.2c-.6,1.5-1.8,2.6-3.4,3.3l1.3.6-.9,2-5.9-2.6.9-2,1.4.6c2.2-.2,3.6-1.1,4.3-2.6.4-.9.5-1.7.2-2.4-.2-.7-.8-1.2-1.6-1.6-1.2-.5-2.3,0-3.5,1.4l-1.5,1.8c-1.1,1.3-2.1,2.1-3.1,2.5-1,.4-2.1.3-3.3-.2-1.4-.6-2.3-1.5-2.8-2.7-.4-1.2-.3-2.5.4-4,.6-1.3,1.5-2.3,2.9-3Z"/>
        <path d="M907.9,161.4c2.6,1.6,4,3.6,4.3,5.9.3,2.4-.5,5.1-2.4,8.1l-3.5,5.6-1.9-1.2,1.3-2-11.2-7-1.3,2-1.9-1.2,3.6-5.7c1.9-3.1,3.9-5,6-5.8,2.1-.8,4.4-.4,6.9,1.2ZM906.5,163.9c-1.3-.8-2.4-1.2-3.5-1.3s-2.1.3-3.1,1c-1,.7-2,1.9-3,3.5l-.9,1.4,11.2,7,.9-1.4c1.4-2.3,2-4.3,1.8-5.9-.3-1.6-1.4-3.1-3.4-4.3Z"/>
        <path d="M913.1,147.7l-2.4-1.7-4.3,6.2,4.3,3,3.7-5.4,1.8,1.2-3.7,5.4,4.8,3.3,4.3-6.2-2.7-1.8,1.2-1.8,4.5,3.1-8.3,12.1-1.8-1.2,1.3-1.9-11-7.5-1.3,1.9-1.8-1.2,8.3-12.1,4.3,2.9-1.2,1.8Z"/>
        <path d="M915.9,138.8l10.6,7.9,3.5-4.7-4.4-3.3,1.3-1.8,6.2,4.6-7.7,10.4-1.8-1.3,1.4-1.8-10.6-7.9-1.4,1.8-1.8-1.3,4.3-5.8,1.8,1.3-1.4,1.8Z"/>
        <path d="M933.5,116.7l13.2,5.1,1.3-1.5,1.7,1.4-4.6,5.3-1.7-1.4,1.5-1.7-3.9-1.6-4.2,4.8,2.1,3.7,1.5-1.7,1.7,1.4-4.6,5.3-1.7-1.4,1.4-1.6-7-12.3-1.4,1.6-1.6-1.4,6-6.9,1.6,1.4-1.4,1.6ZM932,118.5h0c0,0,3.8,6.7,3.8,6.7l3.3-3.8-7.1-2.9Z"/>
        <path d="M949.2,99.9l-1.4-1.4,1.6-1.6,4.1,4.1-1.6,1.6c-1.2-.4-2.4-.5-3.7-.2-1.3.3-2.3.9-3.2,1.8-.9.9-1.4,1.8-1.7,2.9-.3,1.1-.2,2.2.1,3.2.3,1.1,1,2.1,1.9,3,1,.9,2,1.6,3.1,1.9,1.1.3,2.2.4,3.4,0s2.1-.9,3-1.8c.7-.7,1.2-1.4,1.5-2.3.3-.8.5-1.7.4-2.5,0-.8-.4-1.6-.9-2.3l-2.3,2.3-1.6-1.6,4.5-4.6.4.4c1.2,1.2,2,2.5,2.3,3.9.3,1.4.3,2.8-.2,4.3s-1.3,2.7-2.5,3.9c-1.3,1.4-2.8,2.3-4.4,2.8-1.6.5-3.1.5-4.6,0-1.5-.4-2.9-1.3-4.2-2.6-1.2-1.2-2.1-2.6-2.5-4.1-.4-1.5-.5-3,0-4.5s1.2-2.9,2.4-4.1c1.7-1.7,3.7-2.7,6-2.8Z"/>
        <path d="M957.2,92.8l5.9,6.8c1,1.2,2,1.9,3,2s1.9-.2,2.7-.9c.9-.8,1.3-1.6,1.3-2.6,0-1-.5-2-1.6-3.2l-5.9-6.8-1.6,1.4-1.4-1.7,5.2-4.5,1.4,1.7-1.7,1.4,6.1,7c1.4,1.6,2,3.2,2,4.7,0,1.5-.9,3-2.5,4.3-1.6,1.4-3.1,2-4.6,1.8-1.5-.1-3-1.1-4.5-2.7l-6-6.9-1.6,1.4-1.4-1.7,5.2-4.6,1.4,1.7-1.6,1.4Z"/>
        <path d="M976.3,77.3l11.8,7.8,1.6-1.2,1.3,1.8-5.6,4.2-1.3-1.8,1.8-1.4-3.5-2.4-5.1,3.9,1.3,4,1.8-1.3,1.3,1.8-5.6,4.2-1.3-1.8,1.7-1.3-4.2-13.5-1.7,1.3-1.3-1.7,7.3-5.5,1.3,1.7-1.7,1.3ZM974.4,78.7h0s2.4,7.3,2.4,7.3l4-3-6.3-4.3Z"/>
        <path d="M995.9,67.5c.8-.9,1.2-1.9,1.4-2.9l1.5-1.7,1.8,1.6-1.4,1.7c-.3.1-.5.2-.8.4-.7.5-1.3.9-1.8,1.4,1.2.4,2.2.6,3.1.4l2,.9-.9,2.1-2.1-.8c-.7-.9-1.5-1.5-2.5-1.9,0,1.2.1,2.2.6,3.1l-.2,2.2-2.3-.2v-2.2c.6-.8,1-1.7,1.1-2.9-.6.2-1.4.5-2.2,1,0,0-.3.2-.6.4l-2.1.5-.6-2.3,2.2-.5c1,.3,2,.3,3.2,0-.5-.8-1.3-1.6-2.3-2.2l-1.1-1.8,2-1.2,1.1,1.8c0,1.1.4,2.2.9,3.1Z"/>
        <path d="M1020.5,50.7l-.9-1.7,2-1,2.5,5.1-2.1,1c-1-.8-2.1-1.2-3.3-1.3-1.2-.1-2.3,0-3.4.6-1,.5-1.8,1.3-2.4,2.2-.5,1-.8,2-.8,3.2,0,1.1.3,2.2.8,3.3.5,1.1,1.3,2,2.2,2.7s2,1.1,3.1,1.2c1.1.1,2.2,0,3.2-.6,1.3-.6,2.2-1.6,2.8-2.8.6-1.3.8-2.7.5-4.3h2.5c.3,2.1,0,4-.9,5.6-.9,1.7-2.3,2.9-4.1,3.9-1.5.8-3.1,1.1-4.6.9s-3-.7-4.2-1.6-2.3-2.1-3-3.6c-.8-1.6-1.2-3.2-1.1-4.8s.5-3,1.4-4.3c.8-1.3,2-2.3,3.6-3.1,1-.5,2.1-.8,3.1-.9,1,0,2.1,0,3.1.3Z"/>
        <path d="M1035.5,44.4l9.5,10.5,1.8-.7.8,2-6.4,2.6-.8-2,2.1-.9-2.8-3.2-5.9,2.4.2,4.2,2.1-.8.8,2-6.5,2.7-.8-2,2-.8-.6-14.1-2,.8-.8-2,8.5-3.5.8,2-2,.8ZM1033.3,45.4h0s.4,7.7.4,7.7l4.6-1.9-5-5.8Z"/>
        <path d="M1056.5,37.1l-2.4.8-.7-2.1,6.9-2.3.7,2.1-2.5.8,4.9,14.9-2.6.9-12.8-11.7,4,12.1,2.4-.8.7,2.1-6.9,2.3-.7-2.1,2.4-.8-4.1-12.6-2.4.8-.7-2.1,5.7-1.9,11.7,10.6-3.6-10.9Z"/>
        <path d="M1078,30.9l-.5-1.9,2.2-.6,1.4,5.6-2.2.6c-.8-1-1.8-1.6-3-2-1.2-.4-2.5-.4-3.7-.1-1.2.3-2.2.8-2.9,1.6-.8.8-1.3,1.7-1.6,2.8-.3,1.1-.2,2.3,0,3.5.3,1.3.9,2.4,1.7,3.3.8.9,1.7,1.5,2.8,1.8,1.1.3,2.3.3,3.5,0,.9-.2,1.8-.6,2.5-1.2.7-.5,1.3-1.2,1.6-2,.4-.8.5-1.6.4-2.4l-3.1.8-.5-2.2,6.2-1.6v.6c.6,1.6.5,3.1.1,4.5-.4,1.4-1.2,2.6-2.4,3.6-1.1,1-2.5,1.7-4.2,2.1-1.9.5-3.6.5-5.2.1s-2.9-1.2-4-2.3c-1.1-1.2-1.9-2.6-2.3-4.4-.4-1.7-.4-3.3,0-4.8.4-1.5,1.2-2.8,2.3-3.9s2.5-1.8,4.2-2.2c2.3-.6,4.5-.4,6.6.6Z"/>
        <path d="M1097.2,29.8c.2,1.1,0,2.1-.4,3s-1.3,1.6-2.3,2.1l4.3,5.7,2.1-.4.4,2.2-3.9.8-5.4-7.3-2.4.5,1.1,5.9,2.2-.4.4,2.2-7.2,1.4-.4-2.2,2.3-.5-2.5-13-2.3.5-.4-2.2,7.2-1.4c2.2-.4,3.9-.4,5,.2,1.1.5,1.8,1.6,2.2,3.2ZM1094.5,30.2c-.2-.8-.5-1.3-1.1-1.6-.6-.3-1.4-.3-2.5,0l-2.7.5,1,4.9,2.5-.5c1.1-.2,1.9-.6,2.4-1.1.5-.5.6-1.2.4-2.2Z"/>
        <path d="M1112.3,28l-.4-2.9-7.5,1.1.8,5.2,6.5-.9.3,2.2-6.5.9.8,5.7,7.5-1.1-.5-3.2,2.2-.3.8,5.4-14.5,2.1-.3-2.2,2.2-.3-1.9-13.1-2.2.3-.3-2.2,14.5-2.1.7,5.1-2.2.3Z"/>
        <path d="M1120.8,24.1l1.7,15.5c.2,2,0,3.4-.6,4.3-.6.9-1.7,1.4-3.2,1.6-.7,0-1.4,0-2.1,0l-.3-2.5c.7,0,1.3.1,1.9,0,.5,0,.9-.2,1.2-.4.2-.2.4-.5.5-.9s0-.9,0-1.6l-1.7-15.7-2.2.3-.2-2.2,7.1-.8.2,2.2-2.2.3Z"/>
        <path d="M1143.7,28.7c.1,1.8-.1,3.4-.8,4.9-.7,1.5-1.7,2.6-3,3.5s-2.9,1.4-4.7,1.5c-1.8.1-3.3-.2-4.8-.8-1.4-.7-2.6-1.7-3.4-3-.9-1.3-1.4-2.9-1.5-4.6-.1-1.7.1-3.3.8-4.7.7-1.4,1.7-2.6,3-3.4s2.8-1.4,4.6-1.5c1.8-.1,3.4.1,4.9.8,1.5.7,2.6,1.7,3.5,3,.9,1.3,1.4,2.8,1.5,4.5ZM1135.1,36.2c1.2,0,2.3-.5,3.2-1.2s1.6-1.6,2-2.7c.4-1.1.6-2.2.5-3.4,0-1.2-.4-2.3-1.1-3.3-.6-1-1.4-1.8-2.5-2.3-1-.5-2.1-.7-3.3-.7-1.2,0-2.2.5-3.1,1.1-.9.6-1.5,1.5-2,2.6-.4,1.1-.6,2.2-.5,3.5,0,1.3.4,2.5,1,3.5s1.4,1.8,2.3,2.3c1,.5,2.1.7,3.3.6Z"/>
        <path d="M1154.8,20.7v-1.2s2.1,0,2.1,0l.2,5.4h-2.2c0,0,0-1.1,0-1.1-1-1.3-2.2-2-3.8-1.9-1,0-1.7.3-2.2.7-.5.4-.7,1-.7,1.7,0,.7.3,1.2.8,1.6s1.3.6,2.3.9l2.1.5c1.3.3,2.4.7,3.1,1.3.7.6,1.2,1.2,1.4,1.8.2.6.4,1.4.4,2.2,0,1.6-.4,2.9-1.4,3.9-1,1-2.3,1.5-4,1.5-1.6,0-3.1-.5-4.4-1.6v1.5s-2.2,0-2.2,0l-.2-6.4h2.2c0,0,0,1.5,0,1.5,1.1,1.9,2.5,2.8,4.2,2.8,1,0,1.8-.3,2.3-.8.5-.5.8-1.3.7-2.2,0-1.3-1-2.1-2.8-2.5l-2.2-.5c-1.6-.4-2.8-1-3.6-1.7-.8-.7-1.2-1.8-1.2-3,0-1.6.4-2.8,1.3-3.7s2.1-1.4,3.8-1.4c1.4,0,2.7.4,4,1.3Z"/>
      </g>
    </g>
  </g>
</svg>